<svg xmlns="http://www.w3.org/2000/svg" viewBox="0 0 371.65 80.82"><defs><style>.cls-1{fill:#381c51;}.cls-2{fill:#b23f25;}.cls-3{fill:#ee6925;}.cls-4{fill:#552b78;}.cls-5{fill:#6e3f98;}</style></defs><g id="Layer_2" data-name="Layer 2"><g id="Layer_1-2" data-name="Layer 1"><path class="cls-1" d="M113.79,62.34a21.67,21.67,0,0,1-11.35-2.92,20.21,20.21,0,0,1-7.58-7.93,23,23,0,0,1-2.69-11.08,22.26,22.26,0,0,1,2.77-11.2,20.92,20.92,0,0,1,7.46-7.74A20.06,20.06,0,0,1,113,18.62a21.58,21.58,0,0,1,8.66,1.62A18.42,18.42,0,0,1,128,24.7a20,20,0,0,1,4,6.51,22.18,22.18,0,0,1,1.38,7.89c0,.77,0,1.52-.11,2.27a9.55,9.55,0,0,1-.43,2H100.56V35.63h26.63l-4.85,3.62a11.09,11.09,0,0,0-.27-6.31,9,9,0,0,0-3.39-4.39A9.7,9.7,0,0,0,113,26.94a9.8,9.8,0,0,0-9.35,6.23,15.83,15.83,0,0,0-1,7.31,13.51,13.51,0,0,0,1,6.81,10.06,10.06,0,0,0,4,4.58,11.51,11.51,0,0,0,6.12,1.62A11.26,11.26,0,0,0,119.76,52a10.49,10.49,0,0,0,3.81-3.93l8.16,4a14.32,14.32,0,0,1-3.85,5.31A19,19,0,0,1,121.65,61,22.79,22.79,0,0,1,113.79,62.34Z"/><path class="cls-1" d="M137.43,61.42V53.26l24.32-28.17,1.54,3.46H138.5v-9h33.72v8.23L148.36,56l-1.54-3.46h25.55v8.93Z"/><path class="cls-1" d="M198.23,62.34A21.83,21.83,0,0,1,187,59.46a21.44,21.44,0,0,1-7.82-7.86,21.86,21.86,0,0,1-2.88-11.19,22,22,0,0,1,2.84-11.17A20.9,20.9,0,0,1,187,21.47a22.24,22.24,0,0,1,11.27-2.85,21.78,21.78,0,0,1,8.32,1.58,20.44,20.44,0,0,1,6.66,4.35,16.28,16.28,0,0,1,4,6.46l-8.86,3.93a10.22,10.22,0,0,0-3.88-5.12,10.79,10.79,0,0,0-6.28-1.88,11.09,11.09,0,0,0-5.89,1.57,10.9,10.9,0,0,0-4,4.47,14.22,14.22,0,0,0-1.46,6.5A14.2,14.2,0,0,0,188.3,47a11.25,11.25,0,0,0,4,4.46,10.86,10.86,0,0,0,5.89,1.62,10.45,10.45,0,0,0,6.28-1.93A11,11,0,0,0,208.39,46l8.86,4a17,17,0,0,1-4,6.35,19.53,19.53,0,0,1-6.62,4.38A21.73,21.73,0,0,1,198.23,62.34Z"/><path class="cls-1" d="M224.79,61.42V3.15H235V27.78l-1.39-1.46a11.14,11.14,0,0,1,4.81-5.74,15.29,15.29,0,0,1,7.82-2,16.51,16.51,0,0,1,8.19,2A14.26,14.26,0,0,1,260,26.2a16.64,16.64,0,0,1,2,8.28V61.42H251.88V36.86a10.06,10.06,0,0,0-1.07-4.77,7.67,7.67,0,0,0-3-3.08A9.6,9.6,0,0,0,239,29a7.55,7.55,0,0,0-3,3.08A9.94,9.94,0,0,0,235,36.86V61.42Z"/><path class="cls-1" d="M283.21,62.34a18.69,18.69,0,0,1-7.66-1.46,11.31,11.31,0,0,1-5-4.19,11.44,11.44,0,0,1-1.77-6.35,12.09,12.09,0,0,1,1.58-6.2,12.53,12.53,0,0,1,4.81-4.58,24,24,0,0,1,8.16-2.62l13.62-2.23v7.7l-11.7,2.07a8.76,8.76,0,0,0-4.46,1.89A4.62,4.62,0,0,0,279.28,50a4.09,4.09,0,0,0,1.66,3.43,6.59,6.59,0,0,0,4.12,1.27,11.3,11.3,0,0,0,5.58-1.35,9.36,9.36,0,0,0,3.73-3.73,10.64,10.64,0,0,0,1.31-5.16V33.55a5.72,5.72,0,0,0-2.08-4.5,8.17,8.17,0,0,0-5.54-1.81A9.69,9.69,0,0,0,282.32,29a10.42,10.42,0,0,0-3.65,4.54l-8.24-4a14.52,14.52,0,0,1,3.89-5.73A19.45,19.45,0,0,1,280.59,20a21.63,21.63,0,0,1,7.85-1.39,20.74,20.74,0,0,1,9.09,1.89,14.76,14.76,0,0,1,6.12,5.27,14,14,0,0,1,2.19,7.77V61.42h-9.55V54.26l2.16-.08a17.51,17.51,0,0,1-3.89,4.47,15.79,15.79,0,0,1-5.08,2.77A19.86,19.86,0,0,1,283.21,62.34Z"/><path class="cls-1" d="M315.08,14.85V4.07h10.16V14.85Zm0,46.57V19.55h10.16V61.42Z"/><path class="cls-1" d="M334.47,61.42V19.55H344v8.23l-.77-1.46a11.09,11.09,0,0,1,4.81-5.74,15.22,15.22,0,0,1,7.81-2,16.57,16.57,0,0,1,8.2,2,14.32,14.32,0,0,1,5.58,5.58,16.75,16.75,0,0,1,2,8.28V61.42H361.57V36.86a9.94,9.94,0,0,0-1.08-4.77,7.61,7.61,0,0,0-3-3.08,9.54,9.54,0,0,0-8.78,0,7.61,7.61,0,0,0-3,3.08,9.94,9.94,0,0,0-1.08,4.77V61.42Z"/><path class="cls-2" d="M35.42,66.45v12.6a1.77,1.77,0,0,1-2.65,1.53l-30-17.31-.11-.07a0,0,0,0,1,0,0l-.86-.49a3.55,3.55,0,0,1-1.3-1.31A3.65,3.65,0,0,1,0,59.6V47L15.34,52.8,33.65,63.38A3.53,3.53,0,0,1,35.42,66.45Z"/><path class="cls-3" d="M33.65,17.44l-31,17.89A1.77,1.77,0,0,1,0,33.8V22.22a5.31,5.31,0,0,1,2.66-4.6L32.76.24a1.77,1.77,0,0,1,2.66,1.53v12.6A3.55,3.55,0,0,1,33.65,17.44Z"/><path class="cls-3" d="M2.66,42.41A5.32,5.32,0,0,0,0,47V59.6a3.65,3.65,0,0,0,.48,1.78,3.55,3.55,0,0,0,1.3,1.31l.86.49a1.72,1.72,0,0,1,0-3.06L15.34,52.8,33.65,42.23a3.54,3.54,0,0,0,1.77-3.07V26.56A1.77,1.77,0,0,0,32.77,25Z"/><path class="cls-4" d="M42.51,14.37V1.77A1.77,1.77,0,0,1,45.16.24l30,17.31.11.07a0,0,0,0,1,0,0l.86.49a3.55,3.55,0,0,1,1.3,1.31,3.64,3.64,0,0,1,.47,1.78V33.81L62.59,28,44.28,17.44A3.53,3.53,0,0,1,42.51,14.37Z"/><path class="cls-5" d="M44.28,63.38l31-17.89A1.77,1.77,0,0,1,77.93,47V58.6a5.3,5.3,0,0,1-2.66,4.6L45.17,80.58a1.77,1.77,0,0,1-2.66-1.53V66.45A3.55,3.55,0,0,1,44.28,63.38Z"/><path class="cls-5" d="M75.27,38.41a5.32,5.32,0,0,0,2.65-4.6V21.22a3.64,3.64,0,0,0-.47-1.78,3.55,3.55,0,0,0-1.3-1.31l-.86-.49a1.72,1.72,0,0,1,0,3.06L62.59,28,44.28,38.59a3.54,3.54,0,0,0-1.77,3.07v12.6a1.77,1.77,0,0,0,2.65,1.53Z"/></g></g></svg>